<?xml version="1.0" ?><svg enable-background="new 0 0 48 48" id="Layer_1" version="1.1" viewBox="0 0 48 48" xml:space="preserve" xmlns="http://www.w3.org/2000/svg" xmlns:xlink="http://www.w3.org/1999/xlink"><g><polygon opacity="0.3" points="3,28.3 16.1,20.8 44,34.8 30,41.8  "/><polygon fill="#2D3134" points="5.3,25 5.3,28.8 7.8,27.5 7.8,23.8  "/><polygon opacity="0.39" points="5.3,25 5.3,28.8 7.8,27.5 7.8,23.8  "/><g><path d="M26.2,32.9c-0.7-0.4-1.4-0.4-1.9-0.2l0,0l-1.4,0.7l0,0C22.3,33.6,22,34.2,22,35c0,1.5,1.3,3.4,2.8,4.2    c0.8,0.4,1.5,0.4,2,0.2c0,0,1.4-0.7,1.5-0.8c0.5-0.3,0.7-0.8,0.7-1.5C29,35.5,27.7,33.6,26.2,32.9z" fill="#2D3134"/><path d="M26.8,39.3c0.2-0.1,1.4-0.7,1.5-0.7c0.5-0.3,0.7-0.8,0.7-1.5c0-0.6-0.2-1.3-0.5-1.9l-1.4,0.7    c0.3,0.6,0.5,1.3,0.5,1.9C27.6,38.5,27.3,39.1,26.8,39.3z" opacity="0.39"/><path d="M26.9,37.4c0,1.2-0.9,1.6-2.1,1c-1.2-0.6-2.1-2-2.1-3.2s0.9-1.6,2.1-1C26,34.8,26.9,36.2,26.9,37.4z" fill="#999999"/><path d="M25,38.4c-1.2-0.6-2.1-2-2.1-3.2c0-0.6,0.2-1,0.6-1.2c-0.5,0.1-0.8,0.6-0.8,1.2c0,1.2,0.9,2.6,2.1,3.2    c0.6,0.3,1.1,0.3,1.5,0.1C25.9,38.7,25.5,38.6,25,38.4z" opacity="0.15"/><path d="M25.9,36.7c0,0.5-0.4,0.7-0.9,0.4s-0.9-0.8-0.9-1.3c0-0.5,0.4-0.7,0.9-0.4S25.9,36.2,25.9,36.7z" fill="#2D3134"/><path d="M25.9,36.7c0,0.5-0.4,0.7-0.9,0.4s-0.9-0.8-0.9-1.3c0-0.5,0.4-0.7,0.9-0.4S25.9,36.2,25.9,36.7z" opacity="0.39"/><path d="M25.7,36.8c0,0.5-0.4,0.7-0.9,0.4c-0.5-0.2-0.9-0.8-0.9-1.3s0.4-0.7,0.9-0.4    C25.3,35.7,25.7,36.3,25.7,36.8z" fill="#2D3134"/><path d="M27.6,37.8c0,1.5-1.3,2.2-2.8,1.4C23.3,38.4,22,36.5,22,35s1.3-2.2,2.8-1.4    C26.3,34.3,27.6,36.2,27.6,37.8z" opacity="6.000000e-002"/></g><g><path d="M9.7,24.6c-0.7-0.4-1.4-0.4-1.9-0.2l0,0l-1.4,0.7l0,0c-0.5,0.2-0.9,0.8-0.9,1.6c0,1.5,1.3,3.4,2.8,4.2    c0.8,0.4,1.5,0.4,2,0.2c0,0,1.4-0.7,1.5-0.8c0.5-0.3,0.7-0.8,0.7-1.5C12.5,27.3,11.2,25.4,9.7,24.6z" fill="#2D3134"/><path d="M10.3,31.1c0.2-0.1,1.4-0.7,1.5-0.7c0.5-0.3,0.7-0.8,0.7-1.5c0-0.6-0.2-1.3-0.5-1.9l-1.4,0.7    c0.3,0.6,0.5,1.3,0.5,1.9C11.1,30.3,10.8,30.8,10.3,31.1z" opacity="0.39"/><path d="M10.4,29.2c0,1.2-0.9,1.6-2.1,1s-2.1-2-2.1-3.2s0.9-1.6,2.1-1S10.4,28,10.4,29.2z" fill="#999999"/><path d="M8.5,30.1c-1.2-0.6-2.1-2-2.1-3.2c0-0.6,0.2-1,0.6-1.2c-0.5,0.1-0.8,0.6-0.8,1.2c0,1.2,0.9,2.6,2.1,3.2    c0.6,0.3,1.1,0.3,1.5,0.1C9.4,30.4,9,30.4,8.5,30.1z" opacity="0.15"/><path d="M9.4,28.5c0,0.5-0.4,0.7-0.9,0.4c-0.5-0.2-0.9-0.8-0.9-1.3s0.4-0.7,0.9-0.4C9,27.4,9.4,28,9.4,28.5z" fill="#2D3134"/><path d="M9.4,28.5c0,0.5-0.4,0.7-0.9,0.4c-0.5-0.2-0.9-0.8-0.9-1.3s0.4-0.7,0.9-0.4C9,27.4,9.4,28,9.4,28.5z" opacity="0.39"/><path d="M9.2,28.5c0,0.5-0.4,0.7-0.9,0.4s-0.9-0.8-0.9-1.3c0-0.5,0.4-0.7,0.9-0.4S9.2,28.1,9.2,28.5z" fill="#2D3134"/><path d="M11.1,29.5c0,1.5-1.3,2.2-2.8,1.4c-1.5-0.8-2.8-2.7-2.8-4.2c0-1.5,1.3-2.2,2.8-1.4    C9.8,26.1,11.1,28,11.1,29.5z" opacity="6.000000e-002"/></g><polygon fill="#FF9900" points="17,1 3,8 3,23.3 21,32.3 35,25 35,10  "/><polygon fill="#2D3134" points="3,22 3,24 21,33 21,31  "/><polygon fill="#2D3134" points="35,24 35,26 21,33 21,31  "/><polygon opacity="6.000000e-002" points="3,8 3,24 21,33 21,17  "/><polygon opacity="0.39" points="35,10 35,26 21,33 21,17  "/><path d="M42,18l-6-3l-14,7v11.3c0,0.3,0.4,0.5,0.7,0.3c0,0,0,0,0,0c1.2-1,3.3-0.3,4.8,1.5c0.9,1.1,1.3,2.3,1.3,3.3   L30,39l14-7v-8L42,18z" fill="#E5E5E5"/><path d="M30.4,30.5l-1.7-5c-0.1-0.2,0-0.3,0.2-0.4l12.5-6.2c0.2-0.1,0.4,0,0.5,0.2l1.6,4.7c0.1,0.2,0,0.3-0.2,0.4   l-12.4,6.5C30.7,30.8,30.4,30.7,30.4,30.5z" fill="#3399CC"/><path d="M32.7,23.2l8.6-4.3c0.2-0.1,0.4,0,0.5,0.2l1.5,4.4L32.7,23.2z" opacity="0.15"/><path d="M43.4,23.8l-0.1-0.3c0,0.2,0,0.3-0.2,0.4l-12.4,6.5c-0.2,0.1-0.4,0-0.5-0.2l0.1,0.3   c0.1,0.2,0.3,0.3,0.5,0.2l12.4-6.5C43.4,24.1,43.5,24,43.4,23.8z" fill="#2D3134"/><polygon fill="#FFFFFF" points="33.5,30 40.5,26.5 40.5,32.3 33.5,35.8  "/><polygon fill="#2D3134" points="34,35 40,32 40,27.3 34,30.3  "/><polygon fill="#2D3134" points="44,32 44,30 30,37 30,39  "/><polygon fill="#2D3134" points="28,38 30,39 30,37 28,36  "/><polygon fill="#FFFFFF" points="34,35 34,36 40,33 40,32  "/><path d="M27.5,25.3l-3.8-1.9c-0.1-0.1-0.3,0-0.3,0.2v3c0,0.2,0.1,0.4,0.3,0.4l1.3,0.7c0.1,0.1,0.2,0.1,0.3,0.2   l1.3,1.6c0,0,0,0,0.1,0l2.2,1.1c0.1,0.1,0.3-0.1,0.2-0.2l-1.7-5C27.6,25.4,27.6,25.3,27.5,25.3z" fill="#3399CC"/><path d="M29.3,30.3l-2-1c0,0,0,0-0.1,0l-1.3-1.6c-0.1-0.1-0.2-0.2-0.3-0.2l-1.3-0.7c-0.2-0.1-0.3-0.2-0.3-0.4v-2.9   l-0.2-0.1c-0.1-0.1-0.3,0-0.3,0.2v3c0,0.2,0.1,0.4,0.3,0.4l1.3,0.7c0.1,0.1,0.2,0.1,0.3,0.2l1.3,1.6c0,0,0,0,0.1,0l2.2,1.1   C29.2,30.7,29.3,30.6,29.3,30.3L29.3,30.3z" opacity="0.15"/><polygon fill="#FFCC00" points="30,35 30,37 29.5,36.8 29.5,34.8  "/><polygon fill="#E5E5E5" points="34,31 34,31.3 40,28.3 40,28  "/><polygon fill="#E5E5E5" points="34,32 34,32.3 40,29.3 40,29  "/><polygon fill="#E5E5E5" points="34,33 34,33.3 40,30.3 40,30  "/><polygon fill="#E5E5E5" points="34,34 34,34.3 40,31.3 40,31  "/><polygon fill="#2D3134" opacity="0.5" points="23.5,28.3 23.5,28.8 24.5,29.3 24.5,28.8  "/><polygon fill="#FFFFFF" opacity="0.5" points="24.5,29.5 23.5,29 23.5,28.8 24.5,29.3  "/><path d="M37.5,23.9c-0.1-0.1-0.2-0.1-0.3,0l-3.8,4.3c-0.1,0.1-0.1,0.2,0,0.3s0.2,0.1,0.3,0l1-1.2v1H35V27h0l2.5-2.9   C37.6,24.1,37.6,23.9,37.5,23.9z" fill="#2D3134"/><path d="M41.1,21.9c-0.1-0.1-0.2-0.1-0.3,0L37,26.2c-0.1,0.1-0.1,0.2,0,0.3c0.1,0.1,0.2,0.1,0.3,0l0.9-1v1.1h0.3   v-1.4l2.6-3C41.2,22.1,41.2,22,41.1,21.9z" fill="#2D3134"/><path d="M42,31l2-1v-2l-1,0.5c-0.6,0.3-1,0.9-1,1.6V31z" fill="#FFFFFF"/><ellipse cx="42.7" cy="29.5" fill="#2D3134" opacity="0.3" rx="0.8" ry="0.5" transform="matrix(-0.6313 0.7756 -0.7756 -0.6313 92.5986 15.0669)"/><ellipse cx="43.2" cy="29.5" fill="#2D3134" opacity="0.3" rx="0.8" ry="0.5" transform="matrix(-0.6313 0.7756 -0.7756 -0.6313 93.4142 14.6791)"/><polygon fill="#FFFFFF" opacity="0.3" points="42,31 44,30 44,28  "/><path d="M30,37l2-1v-0.9c0-0.5-0.5-0.8-1-0.6L30,35V37z" fill="#FFFFFF"/><ellipse cx="31.2" cy="35.5" fill="#2D3134" opacity="0.3" rx="0.8" ry="0.5" transform="matrix(-0.6313 0.7756 -0.7756 -0.6313 78.4923 33.7735)"/><ellipse cx="30.7" cy="35.5" fill="#2D3134" opacity="0.3" rx="0.8" ry="0.5" transform="matrix(-0.6313 0.7756 -0.7756 -0.6313 77.6766 34.1613)"/><polygon fill="#FFFFFF" opacity="0.3" points="30,37 32,36 30,35  "/><path d="M28,25l-6-3v11.3c0,0.3,0.4,0.5,0.7,0.3c0,0,0,0,0,0c1.2-1,3.3-0.3,4.8,1.5c0.3,0.3,0.5,0.6,0.6,1   L28,36v2l2,1v0v-2v-6L28,25z" opacity="6.000000e-002"/><polygon opacity="0.39" points="42,18 28,25 30,31 30,39 44,32 44,24  "/></g></svg>